{
  "accessors": [
    {
      "bufferView": 2,
      "componentType": 5126,
      "count": 65532,
      "max": [
        16.955102920532227,
        2.7267720699310303,
        8.837224006652832
      ],
      "min": [
        -5.303697109222412,
        -4.844622611999512,
        -0.14260484278202057
      ],
      "type": "VEC3"
    },
    {
      "bufferView": 2,
      "byteOffset": 786384,
      "componentType": 5126,
      "count": 65532,
      "max": [
        1.0,
        1.0,
        1.0
      ],
      "min": [
        -1.0,
        -1.0,
        -1.0
      ],
      "type": "VEC3"
    },
    {
      "bufferView": 1,
      "componentType": 5126,
      "count": 65532,
      "max": [
        0.9716781377792358,
        0.9644617438316345
      ],
      "min": [
        0.15346869826316833,
        0.16834688186645508
      ],
      "type": "VEC2"
    },
    {
      "bufferView": 0,
      "componentType": 5125,
      "count": 263199,
      "type": "SCALAR"
    },
    {
      "bufferView": 2,
      "byteOffset": 1572768,
      "componentType": 5126,
      "count": 65532,
      "max": [
        16.474679946899414,
        1.8019769191741943,
        8.43298053741455
      ],
      "min": [
        -1.4087696075439453,
        -4.8516645431518555,
        -0.14563792943954468
      ],
      "type": "VEC3"
    },
    {
      "bufferView": 2,
      "byteOffset": 2359152,
      "componentType": 5126,
      "count": 65532,
      "max": [
        0.9999794960021973,
        1.0,
        1.0
      ],
      "min": [
        -1.0,
        -1.0,
        -1.0
      ],
      "type": "VEC3"
    },
    {
      "bufferView": 1,
      "byteOffset": 524256,
      "componentType": 5126,
      "count": 65532,
      "max": [
        0.9729132056236267,
        0.9585824608802795
      ],
      "min": [
        0.22555744647979736,
        0.26482951641082764
      ],
      "type": "VEC2"
    },
    {
      "bufferView": 0,
      "byteOffset": 1052796,
      "componentType": 5125,
      "count": 346485,
      "type": "SCALAR"
    },
    {
      "bufferView": 2,
      "byteOffset": 3145536,
      "componentType": 5126,
      "count": 45555,
      "max": [
        9.939701080322266,
        2.7380900382995605,
        3.610752820968628
      ],
      "min": [
        0.44660741090774536,
        0.3921056091785431,
        -0.14563792943954468
      ],
      "type": "VEC3"
    },
    {
      "bufferView": 2,
      "byteOffset": 3692196,
      "componentType": 5126,
      "count": 45555,
      "max": [
        0.999979555606842,
        1.0,
        0.9998297691345215
      ],
      "min": [
        -0.9998037219047546,
        -1.0,
        -0.999822735786438
      ],
      "type": "VEC3"
    },
    {
      "bufferView": 1,
      "byteOffset": 1048512,
      "componentType": 5126,
      "count": 45555,
      "max": [
        0.9729132652282715,
        0.93404221534729
      ],
      "min": [
        0.22359012067317963,
        0.26482951641082764
      ],
      "type": "VEC2"
    },
    {
      "bufferView": 0,
      "byteOffset": 2438736,
      "componentType": 5125,
      "count": 245643,
      "type": "SCALAR"
    },
    {
      "bufferView": 2,
      "byteOffset": 4238856,
      "componentType": 5126,
      "count": 1724,
      "max": [
        16.738826751708984,
        2.1543362140655518,
        9.3198881149292
      ],
      "min": [
        -1.2461708784103394,
        -4.292949676513672,
        1.553602933883667
      ],
      "type": "VEC3"
    },
    {
      "bufferView": 2,
      "byteOffset": 4259544,
      "componentType": 5126,
      "count": 1724,
      "max": [
        1.0,
        1.0,
        0.9958016872406006
      ],
      "min": [
        -1.0,
        -1.0,
        -1.0
      ],
      "type": "VEC3"
    },
    {
      "bufferView": 3,
      "componentType": 5126,
      "count": 1724,
      "max": [
        1.0,
        1.0,
        1.0,
        1.0
      ],
      "min": [
        -1.0,
        -1.0,
        -1.0,
        -1.0
      ],
      "type": "VEC4"
    },
    {
      "bufferView": 1,
      "byteOffset": 1412952,
      "componentType": 5126,
      "count": 1724,
      "max": [
        1.0,
        1.0
      ],
      "min": [
        0.0,
        0.0
      ],
      "type": "VEC2"
    },
    {
      "bufferView": 1,
      "byteOffset": 1426744,
      "componentType": 5126,
      "count": 1724,
      "max": [
        1.0,
        1.0
      ],
      "min": [
        0.0,
        0.0
      ],
      "type": "VEC2"
    },
    {
      "bufferView": 1,
      "byteOffset": 1440536,
      "componentType": 5126,
      "count": 1724,
      "max": [
        1.0,
        1.0
      ],
      "min": [
        0.0,
        0.0
      ],
      "type": "VEC2"
    },
    {
      "bufferView": 0,
      "byteOffset": 3421308,
      "componentType": 5125,
      "count": 3894,
      "type": "SCALAR"
    },
    {
      "bufferView": 2,
      "byteOffset": 4280232,
      "componentType": 5126,
      "count": 216,
      "max": [
        0.3747566342353821,
        -0.2752605080604553,
        3.99350905418396
      ],
      "min": [
        -0.2545994818210602,
        -2.145437479019165,
        2.5078041553497314
      ],
      "type": "VEC3"
    },
    {
      "bufferView": 2,
      "byteOffset": 4282824,
      "componentType": 5126,
      "count": 216,
      "max": [
        0.07307527959346771,
        0.9882341623306274,
        0.9973264932632446
      ],
      "min": [
        -0.9820907711982727,
        -0.9882333874702454,
        -0.930289089679718
      ],
      "type": "VEC3"
    },
    {
      "bufferView": 1,
      "byteOffset": 1454328,
      "componentType": 5126,
      "count": 216,
      "max": [
        0.8665109872817993,
        0.8959999084472656
      ],
      "min": [
        0.11748898029327393,
        0.1119999885559082
      ],
      "type": "VEC2"
    },
    {
      "bufferView": 0,
      "byteOffset": 3436884,
      "componentType": 5125,
      "count": 324,
      "type": "SCALAR"
    }
  ],
  "asset": {
    "extras": {
      "author": "vishal gawde (https://sketchfab.com/vishal24)",
      "license": "CC-BY-4.0 (http://creativecommons.org/licenses/by/4.0/)",
      "source": "https://sketchfab.com/3d-models/jcb-4x-eloader-digger-3a29750307bf41b3a8214dc634227bf0",
      "title": "JCB 4x Eloader Digger"
    },
    "generator": "Sketchfab-14.35.0",
    "version": "2.0"
  },
  "bufferViews": [
    {
      "buffer": 0,
      "byteLength": 3438180,
      "name": "floatBufferViews",
      "target": 34963
    },
    {
      "buffer": 0,
      "byteLength": 1456056,
      "byteOffset": 3438180,
      "byteStride": 8,
      "name": "floatBufferViews",
      "target": 34962
    },
    {
      "buffer": 0,
      "byteLength": 4285416,
      "byteOffset": 4894236,
      "byteStride": 12,
      "name": "floatBufferViews",
      "target": 34962
    },
    {
      "buffer": 0,
      "byteLength": 27584,
      "byteOffset": 9179652,
      "byteStride": 16,
      "name": "floatBufferViews",
      "target": 34962
    }
  ],
  "buffers": [
    {
      "byteLength": 9207236,
      "uri": "scene.bin"
    }
  ],
  "images": [
    {
      "uri": "textures/body_baseColor.jpeg"
    },
    {
      "uri": "textures/stainleass_still_baseColor.jpeg"
    },
    {
      "uri": "textures/stainleass_still_metallicRoughness.png"
    },
    {
      "uri": "textures/stainleass_still_normal.png"
    },
    {
      "uri": "textures/radiator_baseColor.jpeg"
    }
  ],
  "materials": [
    {
      "doubleSided": true,
      "name": "body",
      "pbrMetallicRoughness": {
        "baseColorTexture": {
          "index": 0
        },
        "metallicFactor": 0.0,
        "roughnessFactor": 0.6689544196706123
      }
    },
    {
      "doubleSided": true,
      "name": "stainleass_still",
      "normalTexture": {
        "index": 3
      },
      "pbrMetallicRoughness": {
        "baseColorTexture": {
          "index": 1
        },
        "metallicRoughnessTexture": {
          "index": 2
        }
      }
    },
    {
      "doubleSided": true,
      "name": "radiator",
      "pbrMetallicRoughness": {
        "baseColorTexture": {
          "index": 4
        },
        "metallicFactor": 0.0,
        "roughnessFactor": 0.8211145618000169
      }
    }
  ],
  "meshes": [
    {
      "name": "Cylinder.003_body_0",
      "primitives": [
        {
          "attributes": {
            "NORMAL": 1,
            "POSITION": 0,
            "TEXCOORD_0": 2
          },
          "indices": 3,
          "material": 0,
          "mode": 4
        }
      ]
    },
    {
      "name": "Cylinder.003_body_0",
      "primitives": [
        {
          "attributes": {
            "NORMAL": 5,
            "POSITION": 4,
            "TEXCOORD_0": 6
          },
          "indices": 7,
          "material": 0,
          "mode": 4
        }
      ]
    },
    {
      "name": "Cylinder.003_body_0",
      "primitives": [
        {
          "attributes": {
            "NORMAL": 9,
            "POSITION": 8,
            "TEXCOORD_0": 10
          },
          "indices": 11,
          "material": 0,
          "mode": 4
        }
      ]
    },
    {
      "name": "Cylinder.003_stainleass still_0",
      "primitives": [
        {
          "attributes": {
            "NORMAL": 13,
            "POSITION": 12,
            "TANGENT": 14,
            "TEXCOORD_0": 15,
            "TEXCOORD_1": 16,
            "TEXCOORD_2": 17
          },
          "indices": 18,
          "material": 1,
          "mode": 4
        }
      ]
    },
    {
      "name": "Cylinder.003_radiator_0",
      "primitives": [
        {
          "attributes": {
            "NORMAL": 20,
            "POSITION": 19,
            "TEXCOORD_0": 21
          },
          "indices": 22,
          "material": 2,
          "mode": 4
        }
      ]
    }
  ],
  "nodes": [
    {
      "children": [
        1
      ],
      "matrix": [
        1.0,
        0.0,
        0.0,
        0.0,
        0.0,
        2.220446049250313e-16,
        -1.0,
        0.0,
        0.0,
        1.0,
        2.220446049250313e-16,
        0.0,
        0.0,
        0.0,
        0.0,
        1.0
      ],
      "name": "Sketchfab_model"
    },
    {
      "children": [
        2
      ],
      "matrix": [
        1.0,
        0.0,
        0.0,
        0.0,
        0.0,
        0.0,
        1.0,
        0.0,
        0.0,
        -1.0,
        0.0,
        0.0,
        0.0,
        0.0,
        0.0,
        1.0
      ],
      "name": "842f95e20d43445ebf310520c5780499.fbx"
    },
    {
      "children": [
        3
      ],
      "name": "RootNode"
    },
    {
      "children": [
        4,
        5,
        6,
        7,
        8
      ],
      "matrix": [
        1.0,
        0.0,
        0.0,
        0.0,
        0.0,
        -1.6292067939183141e-07,
        -0.9999999999999868,
        0.0,
        0.0,
        0.9999999999999868,
        -1.6292067939183141e-07,
        0.0,
        0.0,
        0.0,
        0.0,
        1.0
      ],
      "name": "Cylinder.003"
    },
    {
      "mesh": 0,
      "name": "Cylinder.003_body_0"
    },
    {
      "mesh": 1,
      "name": "Cylinder.003_body_0"
    },
    {
      "mesh": 2,
      "name": "Cylinder.003_body_0"
    },
    {
      "mesh": 3,
      "name": "Cylinder.003_stainleass still_0"
    },
    {
      "mesh": 4,
      "name": "Cylinder.003_radiator_0"
    }
  ],
  "samplers": [
    {
      "magFilter": 9729,
      "minFilter": 9987,
      "wrapS": 10497,
      "wrapT": 10497
    }
  ],
  "scene": 0,
  "scenes": [
    {
      "name": "Sketchfab_Scene",
      "nodes": [
        0
      ]
    }
  ],
  "textures": [
    {
      "sampler": 0,
      "source": 0
    },
    {
      "sampler": 0,
      "source": 1
    },
    {
      "sampler": 0,
      "source": 2
    },
    {
      "sampler": 0,
      "source": 3
    },
    {
      "sampler": 0,
      "source": 4
    }
  ]
}
